<mxfile host="Electron" modified="2024-03-06T11:53:37.537Z" agent="Mozilla/5.0 (X11; Linux x86_64) AppleWebKit/537.36 (KHTML, like Gecko) draw.io/23.0.2 Chrome/120.0.6099.109 Electron/28.1.0 Safari/537.36" etag="7E_okbGKSGHCNtISiGQr" version="23.0.2" type="device">
  <diagram name="Page-1" id="uxqol_gSdvbFaAn8Dccc">
    <mxGraphModel dx="1434" dy="843" grid="1" gridSize="10" guides="1" tooltips="1" connect="1" arrows="1" fold="1" page="1" pageScale="1" pageWidth="850" pageHeight="1100" math="0" shadow="0">
      <root>
        <mxCell id="0" />
        <mxCell id="1" parent="0" />
        <mxCell id="IZ7keM5NDshTm0KoVsty-1" value="Онлайн заказ" style="rounded=0;whiteSpace=wrap;html=1;" vertex="1" parent="1">
          <mxGeometry x="120" y="200" width="120" height="40" as="geometry" />
        </mxCell>
        <mxCell id="IZ7keM5NDshTm0KoVsty-2" value="Заказ через терминалы" style="rounded=0;whiteSpace=wrap;html=1;" vertex="1" parent="1">
          <mxGeometry x="280" y="200" width="120" height="40" as="geometry" />
        </mxCell>
        <mxCell id="IZ7keM5NDshTm0KoVsty-3" value="Заказ через кассу" style="rounded=0;whiteSpace=wrap;html=1;" vertex="1" parent="1">
          <mxGeometry x="440" y="200" width="120" height="40" as="geometry" />
        </mxCell>
        <mxCell id="IZ7keM5NDshTm0KoVsty-4" value="Терминалы" style="ellipse;whiteSpace=wrap;html=1;" vertex="1" parent="1">
          <mxGeometry x="640" y="120" width="120" height="40" as="geometry" />
        </mxCell>
        <mxCell id="IZ7keM5NDshTm0KoVsty-5" value="Обслуживающий персонал" style="ellipse;whiteSpace=wrap;html=1;" vertex="1" parent="1">
          <mxGeometry x="640" y="520" width="120" height="40" as="geometry" />
        </mxCell>
        <mxCell id="IZ7keM5NDshTm0KoVsty-6" value="Готовка" style="rounded=0;whiteSpace=wrap;html=1;" vertex="1" parent="1">
          <mxGeometry x="280" y="360" width="120" height="40" as="geometry" />
        </mxCell>
        <mxCell id="IZ7keM5NDshTm0KoVsty-7" value="Повара" style="ellipse;whiteSpace=wrap;html=1;" vertex="1" parent="1">
          <mxGeometry x="640" y="360" width="120" height="40" as="geometry" />
        </mxCell>
        <mxCell id="IZ7keM5NDshTm0KoVsty-8" value="Сборка" style="rounded=0;whiteSpace=wrap;html=1;" vertex="1" parent="1">
          <mxGeometry x="280" y="520" width="120" height="40" as="geometry" />
        </mxCell>
        <mxCell id="IZ7keM5NDshTm0KoVsty-9" value="Выдать заказ" style="rounded=0;whiteSpace=wrap;html=1;" vertex="1" parent="1">
          <mxGeometry x="200" y="680" width="120" height="40" as="geometry" />
        </mxCell>
        <mxCell id="IZ7keM5NDshTm0KoVsty-10" value="Принести заказ" style="rounded=0;whiteSpace=wrap;html=1;" vertex="1" parent="1">
          <mxGeometry x="360" y="680" width="120" height="40" as="geometry" />
        </mxCell>
        <mxCell id="IZ7keM5NDshTm0KoVsty-11" value="" style="endArrow=classic;html=1;rounded=0;" edge="1" parent="1" source="IZ7keM5NDshTm0KoVsty-1" target="IZ7keM5NDshTm0KoVsty-6">
          <mxGeometry width="50" height="50" relative="1" as="geometry">
            <mxPoint x="270" y="400" as="sourcePoint" />
            <mxPoint x="320" y="350" as="targetPoint" />
          </mxGeometry>
        </mxCell>
        <mxCell id="IZ7keM5NDshTm0KoVsty-12" value="" style="endArrow=classic;html=1;rounded=0;" edge="1" parent="1" source="IZ7keM5NDshTm0KoVsty-2" target="IZ7keM5NDshTm0KoVsty-6">
          <mxGeometry width="50" height="50" relative="1" as="geometry">
            <mxPoint x="353" y="270" as="sourcePoint" />
            <mxPoint x="487" y="470" as="targetPoint" />
          </mxGeometry>
        </mxCell>
        <mxCell id="IZ7keM5NDshTm0KoVsty-13" value="" style="endArrow=classic;html=1;rounded=0;" edge="1" parent="1" source="IZ7keM5NDshTm0KoVsty-3" target="IZ7keM5NDshTm0KoVsty-6">
          <mxGeometry width="50" height="50" relative="1" as="geometry">
            <mxPoint x="440" y="280" as="sourcePoint" />
            <mxPoint x="440" y="480" as="targetPoint" />
          </mxGeometry>
        </mxCell>
        <mxCell id="IZ7keM5NDshTm0KoVsty-14" value="" style="endArrow=classic;html=1;rounded=0;" edge="1" parent="1" source="IZ7keM5NDshTm0KoVsty-6" target="IZ7keM5NDshTm0KoVsty-8">
          <mxGeometry width="50" height="50" relative="1" as="geometry">
            <mxPoint x="460" y="490" as="sourcePoint" />
            <mxPoint x="460" y="690" as="targetPoint" />
          </mxGeometry>
        </mxCell>
        <mxCell id="IZ7keM5NDshTm0KoVsty-15" value="" style="endArrow=classic;html=1;rounded=0;" edge="1" parent="1" source="IZ7keM5NDshTm0KoVsty-8" target="IZ7keM5NDshTm0KoVsty-9">
          <mxGeometry width="50" height="50" relative="1" as="geometry">
            <mxPoint x="425" y="650" as="sourcePoint" />
            <mxPoint x="425" y="770" as="targetPoint" />
          </mxGeometry>
        </mxCell>
        <mxCell id="IZ7keM5NDshTm0KoVsty-16" value="" style="endArrow=classic;html=1;rounded=0;" edge="1" parent="1" source="IZ7keM5NDshTm0KoVsty-8" target="IZ7keM5NDshTm0KoVsty-10">
          <mxGeometry width="50" height="50" relative="1" as="geometry">
            <mxPoint x="428" y="700" as="sourcePoint" />
            <mxPoint x="300" y="860" as="targetPoint" />
          </mxGeometry>
        </mxCell>
        <mxCell id="IZ7keM5NDshTm0KoVsty-17" value="" style="endArrow=none;html=1;rounded=0;dashed=1;" edge="1" parent="1" source="IZ7keM5NDshTm0KoVsty-2" target="IZ7keM5NDshTm0KoVsty-4">
          <mxGeometry width="50" height="50" relative="1" as="geometry">
            <mxPoint x="370" y="150" as="sourcePoint" />
            <mxPoint x="420" y="100" as="targetPoint" />
          </mxGeometry>
        </mxCell>
        <mxCell id="IZ7keM5NDshTm0KoVsty-18" value="" style="endArrow=none;html=1;rounded=0;dashed=1;" edge="1" parent="1" source="IZ7keM5NDshTm0KoVsty-6" target="IZ7keM5NDshTm0KoVsty-7">
          <mxGeometry width="50" height="50" relative="1" as="geometry">
            <mxPoint x="374.96" y="445.90999999999997" as="sourcePoint" />
            <mxPoint x="624.96" y="389.90999999999997" as="targetPoint" />
          </mxGeometry>
        </mxCell>
        <mxCell id="IZ7keM5NDshTm0KoVsty-19" value="" style="endArrow=none;html=1;rounded=0;dashed=1;" edge="1" parent="1" source="IZ7keM5NDshTm0KoVsty-8" target="IZ7keM5NDshTm0KoVsty-5">
          <mxGeometry width="50" height="50" relative="1" as="geometry">
            <mxPoint x="380" y="549" as="sourcePoint" />
            <mxPoint x="620" y="549" as="targetPoint" />
          </mxGeometry>
        </mxCell>
        <mxCell id="IZ7keM5NDshTm0KoVsty-20" value="" style="endArrow=none;html=1;rounded=0;dashed=1;" edge="1" parent="1" source="IZ7keM5NDshTm0KoVsty-3" target="IZ7keM5NDshTm0KoVsty-5">
          <mxGeometry width="50" height="50" relative="1" as="geometry">
            <mxPoint x="420" y="490" as="sourcePoint" />
            <mxPoint x="660" y="490" as="targetPoint" />
          </mxGeometry>
        </mxCell>
        <mxCell id="IZ7keM5NDshTm0KoVsty-21" value="" style="endArrow=none;html=1;rounded=0;dashed=1;" edge="1" parent="1" source="IZ7keM5NDshTm0KoVsty-10" target="IZ7keM5NDshTm0KoVsty-5">
          <mxGeometry width="50" height="50" relative="1" as="geometry">
            <mxPoint x="410" y="510" as="sourcePoint" />
            <mxPoint x="650" y="510" as="targetPoint" />
          </mxGeometry>
        </mxCell>
      </root>
    </mxGraphModel>
  </diagram>
</mxfile>
